HIERARCHY
ROOT SimulationBone
{
	OFFSET 0.000000 0.000000 0.000000
	CHANNELS 6 Xposition Yposition Zposition Zrotation Yrotation Xrotation 
	JOINT Hips
	{
		OFFSET 0.000000 0.000000 0.000000
		CHANNELS 6 Xposition Yposition Zposition Zrotation Yrotation Xrotation 
		JOINT RightUpLeg
		{
			OFFSET 0.103457 1.857824 10.548509
			CHANNELS 3 Zrotation Yrotation Xrotation
			JOINT RightLeg
			{
				OFFSET 43.500000 -0.000023 0.000006
				CHANNELS 3 Zrotation Yrotation Xrotation
				JOINT RightFoot
				{
					OFFSET 42.372192 0.000011 -0.000009
					CHANNELS 3 Zrotation Yrotation Xrotation
					JOINT RightToe
					{
						OFFSET 17.300005 0.000002 -0.000010
						CHANNELS 3 Zrotation Yrotation Xrotation
						End Site
						{
							OFFSET 0.000000 0.000000 0.000000
						}
					}
				}
			}
		}
		JOINT LeftUpLeg
		{
			OFFSET 0.103458 1.857836 -10.548506
			CHANNELS 3 Zrotation Yrotation Xrotation
			JOINT LeftLeg
			{
				OFFSET 43.500038 -0.000023 0.000017
				CHANNELS 3 Zrotation Yrotation Xrotation
				JOINT LeftFoot
				{
					OFFSET 42.372269 -0.000019 0.000007
					CHANNELS 3 Zrotation Yrotation Xrotation
					JOINT LeftToe
					{
						OFFSET 17.299999 -0.000003 0.000008
						CHANNELS 3 Zrotation Yrotation Xrotation
						End Site
						{
							OFFSET 0.000000 0.000000 0.000000
						}
					}
				}
			}
		}
		JOINT Spine
		{
			OFFSET 6.901969 -2.603729 0.000003
			CHANNELS 3 Zrotation Yrotation Xrotation
			JOINT Spine1
			{
				OFFSET 12.588093 -0.000007 0.000001
				CHANNELS 3 Zrotation Yrotation Xrotation
				JOINT Spine2
				{
					OFFSET 12.343206 0.000014 -0.000007
					CHANNELS 3 Zrotation Yrotation Xrotation
					JOINT Neck
					{
						OFFSET 25.832899 -0.000010 0.000002
						CHANNELS 3 Zrotation Yrotation Xrotation
						JOINT Head
						{
							OFFSET 11.766599 0.000010 -0.000001
							CHANNELS 3 Zrotation Yrotation Xrotation
							End Site
							{
								OFFSET 0.000000 0.000000 0.000000
							}
						}
					}
					JOINT RightShoulder
					{
						OFFSET 19.745895 -1.480371 6.000111
						CHANNELS 3 Zrotation Yrotation Xrotation
						JOINT RightArm
						{
							OFFSET 11.284124 -0.000010 -0.000007
							CHANNELS 3 Zrotation Yrotation Xrotation
							JOINT RightForeArm
							{
								OFFSET 33.000061 0.000006 0.000028
								CHANNELS 3 Zrotation Yrotation Xrotation
								JOINT RightHand
								{
									OFFSET 25.200001 0.000019 0.000008
									CHANNELS 3 Zrotation Yrotation Xrotation
									End Site
									{
										OFFSET 0.000000 0.000000 0.000000
									}
								}
							}
						}
					}
					JOINT LeftShoulder
					{
						OFFSET 19.746101 -1.480375 -6.000078
						CHANNELS 3 Zrotation Yrotation Xrotation
						JOINT LeftArm
						{
							OFFSET 11.284128 -0.000010 -0.000011
							CHANNELS 3 Zrotation Yrotation Xrotation
							JOINT LeftForeArm
							{
								OFFSET 33.000095 0.000022 0.000002
								CHANNELS 3 Zrotation Yrotation Xrotation
								JOINT LeftHand
								{
									OFFSET 25.199768 0.000129 0.000422
									CHANNELS 3 Zrotation Yrotation Xrotation
									End Site
									{
										OFFSET 0.000000 0.000000 0.000000
									}
								}
							}
						}
					}
				}
			}
		}
	}
}
MOTION
Frames: 9
Frame Time: 0.016667
-294.038561 0.000000 274.188671 0.000000 122.478897 0.000000 -7.362049 96.662697 -2.094815 81.671948 -2.239837 175.522234 154.348000 -2.920810 167.592092 -29.365380 3.114327 -0.422648 69.177644 -6.429135 -18.959871 21.454562 0.003110 0.000019 159.506910 3.677194 -162.803733 -56.527553 -0.658090 4.077569 70.671440 -1.346443 4.638806 21.454551 -0.003093 -0.000000 7.398469 -0.231122 -0.259025 4.785154 -0.451370 -0.527311 4.467060 -0.454684 -0.524574 -5.313880 -20.181976 -4.975029 -36.456018 13.170865 -18.530568 178.500464 -77.019517 0.096392 23.088979 53.716615 38.776294 -103.326302 -0.662699 2.989184 -7.038086 -1.282541 3.902847 172.933325 85.012906 -5.511198 12.942585 -63.746065 -29.808075 -117.917792 -4.117789 -3.239391 -7.986036 7.402574 -18.926041 
-293.817386 0.000000 276.172719 0.000000 121.514090 0.000000 -6.852578 96.314788 -1.329151 81.165099 -1.876062 177.320804 152.729500 -3.098059 167.029556 -31.934600 3.081557 -3.083819 72.439963 -2.946389 -16.040585 21.454557 0.003107 0.000017 162.215100 1.526841 -163.712174 -53.032275 -0.766453 3.126478 71.784857 -0.548554 5.154576 21.454551 -0.003089 0.000001 7.329200 -0.217351 -0.225032 4.646428 -0.425500 -0.458554 4.328334 -0.428398 -0.455968 -4.975858 -20.351644 -5.278448 -36.492569 13.693286 -19.142029 178.847229 -77.540657 -0.268491 22.984163 53.545029 38.721124 -105.283349 -0.491349 3.063722 -7.162680 -0.247949 3.484570 174.263216 85.093204 -4.168868 12.963415 -63.122361 -29.933891 -119.336631 -4.351716 -3.281769 -7.697736 7.968241 -16.980708 
-293.610477 0.000000 277.992203 0.000000 120.624873 0.000000 -6.391751 95.794884 -0.723724 80.882062 -1.471073 178.949286 151.356895 -3.212495 166.174937 -34.973928 3.665958 -5.296784 75.303709 -0.005564 -12.908560 21.454557 0.003106 0.000017 164.810047 -0.342698 -164.679153 -49.767237 -0.710394 2.413086 72.418630 -0.314940 4.392943 21.454555 -0.003095 0.000001 7.296529 -0.203888 -0.171587 4.580848 -0.400821 -0.351051 4.262749 -0.403070 -0.348618 -4.632860 -20.511852 -5.545958 -36.482618 14.243945 -19.719308 -179.769773 -77.963066 -1.687070 22.130244 53.405271 37.883196 -107.309695 -0.326425 3.141694 -7.202015 1.190027 3.436632 176.695586 85.239743 -1.714419 12.771405 -62.671102 -29.841635 -120.695616 -4.526938 -3.325126 -7.703395 8.246780 -15.343962 
-293.418565 0.000000 279.652545 0.000000 119.809528 0.000000 -6.027697 95.033925 -0.279493 80.752970 -1.244272 -179.612598 150.108760 -3.153331 165.437123 -38.534015 4.455500 -7.076308 77.747125 2.333363 -9.891599 21.454557 0.003106 0.000018 167.349997 -1.853202 -165.816131 -46.520578 -0.471613 2.269027 72.515097 -0.581594 3.264247 21.454558 -0.003104 0.000001 7.287668 -0.227328 -0.100838 4.562941 -0.450491 -0.210482 4.244831 -0.451890 -0.207757 -4.257116 -20.693431 -5.788161 -36.459011 14.774080 -20.254631 -177.742122 -78.235649 -3.758297 20.714844 53.254137 36.386542 -109.318076 -0.167341 3.218574 -7.210342 2.803290 3.671965 -179.824981 85.387702 1.793842 12.414468 -62.279742 -29.634045 -121.930991 -4.647743 -3.366742 -7.793369 8.420163 -13.925162 
-293.242383 0.000000 281.159169 0.000000 119.066057 0.000000 -5.807516 93.962852 0.004329 80.692874 -1.407218 -178.385402 148.862264 -2.794304 165.220855 -42.631390 5.050761 -8.394779 79.706640 4.033578 -7.321769 21.454558 0.003106 0.000018 169.893019 -2.914007 -167.231800 -43.068604 -0.066134 3.029245 72.023900 -1.307421 2.695249 21.454557 -0.003107 0.000001 7.289718 -0.324263 -0.014941 4.566797 -0.647653 -0.042553 4.248671 -0.648031 -0.038644 -3.820286 -20.926894 -6.016423 -36.453668 15.234269 -20.740587 -175.579739 -78.314274 -5.962809 18.928173 53.043807 34.357616 -111.220901 -0.014087 3.290290 -7.244439 4.363111 4.101429 -175.513389 85.471416 6.138121 11.936870 -61.835709 -29.410537 -122.978798 -4.718138 -3.403680 -7.746046 8.657679 -12.629477 
-293.082664 0.000000 282.517500 0.000000 118.392232 0.000000 -5.764037 92.556843 0.136916 80.601226 -2.041240 -177.390890 147.532954 -2.109798 165.811680 -47.202190 5.136671 -9.212868 81.000571 5.095116 -5.494736 21.454557 0.003106 0.000017 172.385773 -3.440318 -168.828385 -39.390763 0.401468 4.710778 71.446148 -2.351145 3.181917 21.454550 -0.003101 0.000000 7.286838 -0.507300 0.088841 4.560324 -1.017641 0.157793 4.242168 -1.016796 0.163935 -3.294770 -21.224201 -6.243053 -36.495061 15.568149 -21.161039 -173.896237 -78.213416 -7.677277 16.989323 52.783677 31.930772 -112.946372 0.135048 3.353865 -7.337546 5.691223 4.604267 -170.921164 85.460143 10.763753 11.390624 -61.275979 -29.217692 -123.800231 -4.751202 -3.433517 -7.424942 9.034930 -11.386730 
-292.940139 0.000000 283.732961 0.000000 117.785642 0.000000 -5.875628 90.968033 0.155798 80.360787 -2.728195 -176.652517 146.158821 -1.532102 167.048751 -51.941218 4.670104 -9.634355 81.057371 5.613863 -4.555301 21.454557 0.003107 0.000016 174.344267 -3.454191 -169.699124 -36.343733 0.718238 6.021239 73.593470 -3.259814 3.405023 21.454545 -0.003093 0.000000 7.251969 -0.693132 0.232927 4.488745 -1.394645 0.439057 4.170556 -1.392096 0.447472 -2.658283 -21.524090 -6.480540 -36.599936 15.693432 -21.463661 -173.393189 -78.136676 -8.189269 15.186188 52.708110 29.227075 -114.486093 0.290288 3.408938 -7.406573 6.807312 4.945145 -166.834198 85.457421 14.880683 10.855594 -60.733132 -28.885344 -124.457493 -4.797106 -3.456632 -7.069700 9.291242 -10.239080 
-292.815541 0.000000 284.810977 0.000000 117.243735 0.000000 -6.107690 89.354103 0.099261 79.969933 -2.977190 -176.233348 144.887240 -1.585595 168.641347 -56.436178 3.730517 -9.666695 79.915712 5.586036 -4.696582 21.454559 0.003110 0.000015 175.381648 -3.146915 -169.112087 -34.760409 0.875661 5.779562 80.617572 -3.553555 2.061902 21.454546 -0.003091 0.000000 7.183388 -0.780366 0.442904 4.348422 -1.576580 0.856542 4.030245 -1.571519 0.866040 -1.971133 -21.730780 -6.717519 -36.822193 15.546158 -21.597410 -174.006915 -78.159315 -7.563918 13.508425 53.005239 26.201851 -115.809718 0.457092 3.453770 -7.400037 7.727050 4.962267 -163.246548 85.509936 18.494206 10.166413 -60.294452 -28.110402 -124.977249 -4.886500 -3.471875 -6.952587 9.179933 -9.347151 
-292.709603 0.000000 285.756971 0.000000 116.763850 0.000000 -6.434537 87.717979 -0.012514 79.822256 -2.518340 -176.350637 144.254605 -2.685597 170.142690 -60.055168 2.695479 -8.803888 80.386401 4.598249 -6.504883 21.454560 0.003111 0.000015 175.893340 -3.018404 -167.812489 -34.414228 1.107279 4.652702 89.416102 -3.191867 -0.007667 21.454551 -0.003091 0.000001 7.191483 -0.692109 0.736953 4.361523 -1.411160 1.447663 4.043451 -1.402544 1.456145 -1.616966 -21.686462 -6.849736 -37.377909 15.160904 -21.554072 -172.797009 -77.674491 -8.793506 10.908761 53.361459 22.372784 -116.736101 0.612824 3.481385 -7.486802 8.258998 4.891278 -158.770679 85.251607 23.006307 8.196935 -59.659078 -26.329255 -125.142493 -4.934308 -3.474058 -7.049584 8.801290 -9.201910 
